<svg xmlns="http://www.w3.org/2000/svg" xmlns:xlink="http://www.w3.org/1999/xlink" width="192" zoomAndPan="magnify" viewBox="0 0 144 143.999998" height="192" preserveAspectRatio="xMidYMid meet" version="1.0"><defs><clipPath id="77c2510bf0"><path d="M 60 0 L 84 0 C 99.914062 0 115.175781 6.320312 126.425781 17.574219 C 137.679688 28.824219 144 44.085938 144 60 L 144 84 C 144 99.914062 137.679688 115.175781 126.425781 126.425781 C 115.175781 137.679688 99.914062 144 84 144 L 60 144 C 44.085938 144 28.824219 137.679688 17.574219 126.425781 C 6.320312 115.175781 0 99.914062 0 84 L 0 60 C 0 44.085938 6.320312 28.824219 17.574219 17.574219 C 28.824219 6.320312 44.085938 0 60 0 Z M 60 0 " clip-rule="nonzero"/></clipPath><clipPath id="5fab6f164f"><path d="M 0 0 L 144 0 L 144 144 L 0 144 Z M 0 0 " clip-rule="nonzero"/></clipPath><clipPath id="0cb484dd20"><path d="M 60 0 L 84 0 C 99.914062 0 115.175781 6.320312 126.425781 17.574219 C 137.679688 28.824219 144 44.085938 144 60 L 144 84 C 144 99.914062 137.679688 115.175781 126.425781 126.425781 C 115.175781 137.679688 99.914062 144 84 144 L 60 144 C 44.085938 144 28.824219 137.679688 17.574219 126.425781 C 6.320312 115.175781 0 99.914062 0 84 L 0 60 C 0 44.085938 6.320312 28.824219 17.574219 17.574219 C 28.824219 6.320312 44.085938 0 60 0 Z M 60 0 " clip-rule="nonzero"/></clipPath><clipPath id="5a8864410c"><rect x="0" width="144" y="0" height="144"/></clipPath><clipPath id="6707d9ebb1"><path d="M 32.0625 33.960938 L 99 33.960938 L 99 52 L 32.0625 52 Z M 32.0625 33.960938 " clip-rule="nonzero"/></clipPath><clipPath id="9f014d0e4b"><path d="M 32.0625 45 L 109 45 L 109 109.710938 L 32.0625 109.710938 Z M 32.0625 45 " clip-rule="nonzero"/></clipPath><clipPath id="4599294205"><path d="M 83 70 L 111.5625 70 L 111.5625 90 L 83 90 Z M 83 70 " clip-rule="nonzero"/></clipPath></defs><g clip-path="url(#77c2510bf0)"><g transform="matrix(1, 0, 0, 1, 0, -0.000000000000008916)"><g clip-path="url(#5a8864410c)"><g clip-path="url(#5fab6f164f)"><g clip-path="url(#0cb484dd20)"><rect x="-31.68" width="207.36" fill="#ffa800" height="207.359996" y="-31.679999" fill-opacity="1"/></g></g></g></g></g><g clip-path="url(#6707d9ebb1)"><path fill="#191f24" d="M 39.671875 42.519531 C 39.667969 42.898438 39.742188 43.261719 39.886719 43.613281 C 40.03125 43.964844 40.238281 44.273438 40.503906 44.539062 C 40.773438 44.808594 41.082031 45.011719 41.429688 45.15625 C 41.78125 45.300781 42.144531 45.375 42.523438 45.375 L 51.078125 45.375 L 51.078125 49.175781 C 51.078125 50.222656 50.222656 51.078125 47.277344 51.078125 L 32.0625 51.078125 L 32.0625 41.570312 C 32.0625 41.070312 32.113281 40.578125 32.210938 40.085938 C 32.308594 39.597656 32.453125 39.121094 32.644531 38.660156 C 32.835938 38.199219 33.070312 37.761719 33.347656 37.34375 C 33.625 36.929688 33.9375 36.546875 34.292969 36.191406 C 34.644531 35.839844 35.03125 35.523438 35.445312 35.246094 C 35.859375 34.96875 36.296875 34.734375 36.757812 34.542969 C 37.222656 34.351562 37.695312 34.207031 38.1875 34.109375 C 38.675781 34.011719 39.171875 33.964844 39.671875 33.964844 L 94.8125 33.964844 C 95.316406 33.964844 95.800781 34.0625 96.269531 34.257812 C 96.734375 34.449219 97.144531 34.726562 97.5 35.082031 C 97.855469 35.4375 98.132812 35.847656 98.324219 36.3125 C 98.519531 36.777344 98.617188 37.261719 98.617188 37.765625 C 98.617188 38.019531 98.570312 38.261719 98.472656 38.496094 C 98.375 38.726562 98.238281 38.933594 98.058594 39.113281 C 97.882812 39.289062 97.675781 39.425781 97.441406 39.523438 C 97.210938 39.621094 96.96875 39.667969 96.714844 39.667969 L 42.523438 39.667969 C 42.144531 39.667969 41.78125 39.742188 41.429688 39.886719 C 41.082031 40.03125 40.773438 40.234375 40.503906 40.503906 C 40.238281 40.769531 40.03125 41.078125 39.886719 41.429688 C 39.742188 41.777344 39.667969 42.144531 39.671875 42.519531 Z M 39.671875 42.519531 " fill-opacity="1" fill-rule="nonzero"/></g><g clip-path="url(#9f014d0e4b)"><path fill="#191f24" d="M 87.207031 66.289062 L 108.125 66.289062 L 108.125 51.078125 C 108.125 50.703125 108.085938 50.332031 108.011719 49.964844 C 107.9375 49.597656 107.828125 49.242188 107.6875 48.898438 C 107.542969 48.550781 107.367188 48.222656 107.15625 47.914062 C 106.949219 47.601562 106.714844 47.3125 106.449219 47.050781 C 106.183594 46.785156 105.894531 46.546875 105.585938 46.339844 C 105.273438 46.132812 104.945312 45.957031 104.601562 45.8125 C 104.253906 45.667969 103.898438 45.558594 103.53125 45.484375 C 103.164062 45.410156 102.792969 45.375 102.421875 45.375 L 33.964844 45.375 C 33.714844 45.375 33.472656 45.421875 33.238281 45.519531 C 33.007812 45.617188 32.800781 45.753906 32.621094 45.933594 C 32.445312 46.109375 32.308594 46.316406 32.210938 46.546875 C 32.113281 46.78125 32.066406 47.023438 32.0625 47.273438 L 32.0625 104.320312 C 32.066406 104.695312 32.101562 105.066406 32.175781 105.433594 C 32.25 105.796875 32.359375 106.15625 32.503906 106.5 C 32.648438 106.847656 32.824219 107.175781 33.03125 107.484375 C 33.238281 107.796875 33.476562 108.085938 33.738281 108.347656 C 34.003906 108.613281 34.292969 108.851562 34.605469 109.058594 C 34.914062 109.265625 35.242188 109.441406 35.589844 109.585938 C 35.933594 109.730469 36.289062 109.839844 36.65625 109.914062 C 37.023438 109.984375 37.394531 110.023438 37.769531 110.023438 L 102.421875 110.023438 C 102.792969 110.023438 103.164062 109.984375 103.53125 109.914062 C 103.898438 109.839844 104.253906 109.730469 104.601562 109.585938 C 104.945312 109.441406 105.273438 109.265625 105.585938 109.058594 C 105.894531 108.851562 106.183594 108.613281 106.449219 108.347656 C 106.714844 108.085938 106.949219 107.796875 107.15625 107.484375 C 107.367188 107.175781 107.542969 106.847656 107.6875 106.5 C 107.828125 106.15625 107.9375 105.796875 108.011719 105.433594 C 108.085938 105.066406 108.125 104.695312 108.125 104.320312 L 108.125 92.910156 L 87.207031 92.910156 C 86.707031 92.910156 86.214844 92.863281 85.722656 92.765625 C 85.234375 92.667969 84.757812 92.523438 84.296875 92.332031 C 83.835938 92.140625 83.398438 91.90625 82.980469 91.628906 C 82.566406 91.351562 82.183594 91.035156 81.828125 90.683594 C 81.476562 90.332031 81.160156 89.945312 80.882812 89.53125 C 80.605469 89.117188 80.371094 88.675781 80.179688 88.214844 C 79.988281 87.753906 79.84375 87.277344 79.746094 86.789062 C 79.652344 86.300781 79.601562 85.804688 79.601562 85.304688 L 79.601562 73.894531 C 79.601562 73.398438 79.652344 72.902344 79.746094 72.410156 C 79.84375 71.921875 79.988281 71.445312 80.179688 70.984375 C 80.371094 70.523438 80.605469 70.085938 80.882812 69.667969 C 81.160156 69.253906 81.476562 68.871094 81.828125 68.515625 C 82.183594 68.164062 82.566406 67.847656 82.980469 67.570312 C 83.398438 67.292969 83.835938 67.058594 84.296875 66.867188 C 84.757812 66.675781 85.234375 66.53125 85.722656 66.4375 C 86.214844 66.339844 86.707031 66.289062 87.207031 66.289062 Z M 87.207031 66.289062 " fill-opacity="1" fill-rule="nonzero"/></g><g clip-path="url(#4599294205)"><path fill="#191f24" d="M 108.125 70.09375 L 87.207031 70.09375 C 86.703125 70.09375 86.21875 70.191406 85.753906 70.386719 C 85.289062 70.578125 84.878906 70.855469 84.523438 71.210938 C 84.164062 71.566406 83.890625 71.976562 83.699219 72.441406 C 83.503906 72.90625 83.40625 73.390625 83.40625 73.894531 L 83.40625 85.304688 C 83.40625 85.808594 83.503906 86.292969 83.699219 86.757812 C 83.890625 87.222656 84.164062 87.632812 84.523438 87.992188 C 84.878906 88.347656 85.289062 88.621094 85.753906 88.816406 C 86.21875 89.007812 86.703125 89.105469 87.207031 89.109375 L 108.125 89.109375 C 108.628906 89.105469 109.113281 89.007812 109.578125 88.816406 C 110.042969 88.621094 110.453125 88.347656 110.808594 87.992188 C 111.167969 87.632812 111.441406 87.222656 111.636719 86.757812 C 111.828125 86.292969 111.925781 85.808594 111.925781 85.304688 L 111.925781 73.894531 C 111.925781 73.390625 111.828125 72.90625 111.636719 72.441406 C 111.441406 71.976562 111.167969 71.566406 110.808594 71.210938 C 110.453125 70.855469 110.042969 70.578125 109.578125 70.386719 C 109.113281 70.191406 108.628906 70.09375 108.125 70.09375 Z M 94.8125 82.929688 C 94.371094 82.929688 93.949219 82.84375 93.539062 82.675781 C 93.132812 82.507812 92.773438 82.265625 92.460938 81.953125 C 92.148438 81.640625 91.910156 81.28125 91.738281 80.875 C 91.570312 80.464844 91.488281 80.042969 91.488281 79.601562 C 91.488281 79.160156 91.570312 78.734375 91.738281 78.328125 C 91.910156 77.917969 92.148438 77.558594 92.460938 77.246094 C 92.773438 76.933594 93.132812 76.695312 93.539062 76.527344 C 93.949219 76.355469 94.371094 76.273438 94.8125 76.273438 C 95.253906 76.273438 95.679688 76.355469 96.085938 76.527344 C 96.496094 76.695312 96.855469 76.933594 97.167969 77.246094 C 97.480469 77.558594 97.71875 77.917969 97.886719 78.328125 C 98.058594 78.734375 98.140625 79.160156 98.140625 79.601562 C 98.144531 80.042969 98.058594 80.46875 97.890625 80.875 C 97.722656 81.285156 97.480469 81.644531 97.167969 81.957031 C 96.855469 82.269531 96.496094 82.507812 96.089844 82.675781 C 95.679688 82.84375 95.253906 82.929688 94.8125 82.929688 Z M 94.8125 82.929688 " fill-opacity="1" fill-rule="nonzero"/></g></svg>